<mxfile host="app.diagrams.net" agent="Mozilla/5.0 (Windows NT 10.0; Win64; x64) AppleWebKit/537.36 (KHTML, like Gecko) Chrome/133.0.0.0 Safari/537.36 Edg/133.0.0.0" version="26.1.0">
  <diagram name="第 1 页" id="c_EK3iJ4XRFkNHlAAFzE">
    <mxGraphModel dx="789" dy="463" grid="1" gridSize="10" guides="1" tooltips="1" connect="1" arrows="1" fold="1" page="1" pageScale="1" pageWidth="827" pageHeight="1169" math="0" shadow="0">
      <root>
        <mxCell id="0" />
        <mxCell id="1" parent="0" />
        <mxCell id="ebNBVzHwmQhHR5r42p8A-3" value="" style="rounded=0;whiteSpace=wrap;html=1;container=0;dashed=1;" vertex="1" parent="1">
          <mxGeometry x="150" y="150" width="30" height="30" as="geometry" />
        </mxCell>
        <mxCell id="ebNBVzHwmQhHR5r42p8A-4" value="" style="rounded=0;whiteSpace=wrap;html=1;container=0;dashed=1;" vertex="1" parent="1">
          <mxGeometry x="180" y="150" width="30" height="30" as="geometry" />
        </mxCell>
        <mxCell id="ebNBVzHwmQhHR5r42p8A-5" value="" style="rounded=0;whiteSpace=wrap;html=1;container=0;dashed=1;" vertex="1" parent="1">
          <mxGeometry x="210" y="150" width="30" height="30" as="geometry" />
        </mxCell>
        <mxCell id="ebNBVzHwmQhHR5r42p8A-6" value="" style="rounded=0;whiteSpace=wrap;html=1;container=0;dashed=1;" vertex="1" parent="1">
          <mxGeometry x="240" y="150" width="30" height="30" as="geometry" />
        </mxCell>
        <mxCell id="ebNBVzHwmQhHR5r42p8A-7" value="" style="rounded=0;whiteSpace=wrap;html=1;container=0;dashed=1;" vertex="1" parent="1">
          <mxGeometry x="270" y="150" width="30" height="30" as="geometry" />
        </mxCell>
        <mxCell id="ebNBVzHwmQhHR5r42p8A-8" value="" style="rounded=0;whiteSpace=wrap;html=1;container=0;dashed=1;" vertex="1" parent="1">
          <mxGeometry x="300" y="150" width="30" height="30" as="geometry" />
        </mxCell>
        <mxCell id="ebNBVzHwmQhHR5r42p8A-9" value="" style="rounded=0;whiteSpace=wrap;html=1;container=0;dashed=1;" vertex="1" parent="1">
          <mxGeometry x="150" y="180" width="30" height="30" as="geometry" />
        </mxCell>
        <mxCell id="ebNBVzHwmQhHR5r42p8A-10" value="" style="rounded=0;whiteSpace=wrap;html=1;container=0;dashed=1;" vertex="1" parent="1">
          <mxGeometry x="180" y="180" width="30" height="30" as="geometry" />
        </mxCell>
        <mxCell id="ebNBVzHwmQhHR5r42p8A-11" value="" style="rounded=0;whiteSpace=wrap;html=1;container=0;dashed=1;" vertex="1" parent="1">
          <mxGeometry x="210" y="180" width="30" height="30" as="geometry" />
        </mxCell>
        <mxCell id="ebNBVzHwmQhHR5r42p8A-12" value="" style="rounded=0;whiteSpace=wrap;html=1;container=0;dashed=1;" vertex="1" parent="1">
          <mxGeometry x="240" y="180" width="30" height="30" as="geometry" />
        </mxCell>
        <mxCell id="ebNBVzHwmQhHR5r42p8A-13" value="" style="rounded=0;whiteSpace=wrap;html=1;container=0;dashed=1;" vertex="1" parent="1">
          <mxGeometry x="270" y="180" width="30" height="30" as="geometry" />
        </mxCell>
        <mxCell id="ebNBVzHwmQhHR5r42p8A-14" value="" style="rounded=0;whiteSpace=wrap;html=1;container=0;dashed=1;" vertex="1" parent="1">
          <mxGeometry x="300" y="180" width="30" height="30" as="geometry" />
        </mxCell>
        <mxCell id="ebNBVzHwmQhHR5r42p8A-15" value="" style="rounded=0;whiteSpace=wrap;html=1;container=0;dashed=1;" vertex="1" parent="1">
          <mxGeometry x="150" y="210" width="30" height="30" as="geometry" />
        </mxCell>
        <mxCell id="ebNBVzHwmQhHR5r42p8A-16" value="" style="rounded=0;whiteSpace=wrap;html=1;container=0;dashed=1;" vertex="1" parent="1">
          <mxGeometry x="180" y="210" width="30" height="30" as="geometry" />
        </mxCell>
        <mxCell id="ebNBVzHwmQhHR5r42p8A-17" value="" style="rounded=0;whiteSpace=wrap;html=1;container=0;dashed=1;" vertex="1" parent="1">
          <mxGeometry x="210" y="210" width="30" height="30" as="geometry" />
        </mxCell>
        <mxCell id="ebNBVzHwmQhHR5r42p8A-18" value="" style="rounded=0;whiteSpace=wrap;html=1;container=0;dashed=1;" vertex="1" parent="1">
          <mxGeometry x="240" y="210" width="30" height="30" as="geometry" />
        </mxCell>
        <mxCell id="ebNBVzHwmQhHR5r42p8A-19" value="" style="rounded=0;whiteSpace=wrap;html=1;container=0;dashed=1;" vertex="1" parent="1">
          <mxGeometry x="270" y="210" width="30" height="30" as="geometry" />
        </mxCell>
        <mxCell id="ebNBVzHwmQhHR5r42p8A-20" value="" style="rounded=0;whiteSpace=wrap;html=1;container=0;dashed=1;" vertex="1" parent="1">
          <mxGeometry x="300" y="210" width="30" height="30" as="geometry" />
        </mxCell>
        <mxCell id="ebNBVzHwmQhHR5r42p8A-21" value="" style="rounded=0;whiteSpace=wrap;html=1;container=0;dashed=1;" vertex="1" parent="1">
          <mxGeometry x="150" y="240" width="30" height="30" as="geometry" />
        </mxCell>
        <mxCell id="ebNBVzHwmQhHR5r42p8A-22" value="" style="rounded=0;whiteSpace=wrap;html=1;container=0;dashed=1;" vertex="1" parent="1">
          <mxGeometry x="180" y="240" width="30" height="30" as="geometry" />
        </mxCell>
        <mxCell id="ebNBVzHwmQhHR5r42p8A-23" value="" style="rounded=0;whiteSpace=wrap;html=1;container=0;dashed=1;" vertex="1" parent="1">
          <mxGeometry x="210" y="240" width="30" height="30" as="geometry" />
        </mxCell>
        <mxCell id="ebNBVzHwmQhHR5r42p8A-24" value="" style="rounded=0;whiteSpace=wrap;html=1;container=0;dashed=1;" vertex="1" parent="1">
          <mxGeometry x="240" y="240" width="30" height="30" as="geometry" />
        </mxCell>
        <mxCell id="ebNBVzHwmQhHR5r42p8A-25" value="" style="rounded=0;whiteSpace=wrap;html=1;container=0;dashed=1;" vertex="1" parent="1">
          <mxGeometry x="270" y="240" width="30" height="30" as="geometry" />
        </mxCell>
        <mxCell id="ebNBVzHwmQhHR5r42p8A-26" value="" style="rounded=0;whiteSpace=wrap;html=1;container=0;dashed=1;" vertex="1" parent="1">
          <mxGeometry x="300" y="240" width="30" height="30" as="geometry" />
        </mxCell>
        <mxCell id="ebNBVzHwmQhHR5r42p8A-27" value="" style="rounded=0;whiteSpace=wrap;html=1;container=0;dashed=1;" vertex="1" parent="1">
          <mxGeometry x="150" y="270" width="30" height="30" as="geometry" />
        </mxCell>
        <mxCell id="ebNBVzHwmQhHR5r42p8A-28" value="" style="rounded=0;whiteSpace=wrap;html=1;container=0;dashed=1;" vertex="1" parent="1">
          <mxGeometry x="180" y="270" width="30" height="30" as="geometry" />
        </mxCell>
        <mxCell id="ebNBVzHwmQhHR5r42p8A-29" value="" style="rounded=0;whiteSpace=wrap;html=1;container=0;dashed=1;" vertex="1" parent="1">
          <mxGeometry x="210" y="270" width="30" height="30" as="geometry" />
        </mxCell>
        <mxCell id="ebNBVzHwmQhHR5r42p8A-30" value="" style="rounded=0;whiteSpace=wrap;html=1;container=0;dashed=1;" vertex="1" parent="1">
          <mxGeometry x="240" y="270" width="30" height="30" as="geometry" />
        </mxCell>
        <mxCell id="ebNBVzHwmQhHR5r42p8A-31" value="" style="rounded=0;whiteSpace=wrap;html=1;container=0;dashed=1;" vertex="1" parent="1">
          <mxGeometry x="270" y="270" width="30" height="30" as="geometry" />
        </mxCell>
        <mxCell id="ebNBVzHwmQhHR5r42p8A-32" value="" style="rounded=0;whiteSpace=wrap;html=1;container=0;dashed=1;" vertex="1" parent="1">
          <mxGeometry x="300" y="270" width="30" height="30" as="geometry" />
        </mxCell>
        <mxCell id="ebNBVzHwmQhHR5r42p8A-33" value="" style="rounded=0;whiteSpace=wrap;html=1;container=0;dashed=1;" vertex="1" parent="1">
          <mxGeometry x="150" y="300" width="30" height="30" as="geometry" />
        </mxCell>
        <mxCell id="ebNBVzHwmQhHR5r42p8A-34" value="" style="rounded=0;whiteSpace=wrap;html=1;container=0;dashed=1;" vertex="1" parent="1">
          <mxGeometry x="180" y="300" width="30" height="30" as="geometry" />
        </mxCell>
        <mxCell id="ebNBVzHwmQhHR5r42p8A-35" value="" style="rounded=0;whiteSpace=wrap;html=1;container=0;dashed=1;" vertex="1" parent="1">
          <mxGeometry x="210" y="300" width="30" height="30" as="geometry" />
        </mxCell>
        <mxCell id="ebNBVzHwmQhHR5r42p8A-36" value="" style="rounded=0;whiteSpace=wrap;html=1;container=0;dashed=1;" vertex="1" parent="1">
          <mxGeometry x="240" y="300" width="30" height="30" as="geometry" />
        </mxCell>
        <mxCell id="ebNBVzHwmQhHR5r42p8A-37" value="" style="rounded=0;whiteSpace=wrap;html=1;container=0;dashed=1;" vertex="1" parent="1">
          <mxGeometry x="270" y="300" width="30" height="30" as="geometry" />
        </mxCell>
        <mxCell id="ebNBVzHwmQhHR5r42p8A-38" value="" style="rounded=0;whiteSpace=wrap;html=1;container=0;dashed=1;" vertex="1" parent="1">
          <mxGeometry x="300" y="300" width="30" height="30" as="geometry" />
        </mxCell>
        <mxCell id="ebNBVzHwmQhHR5r42p8A-43" value="" style="rounded=0;whiteSpace=wrap;html=1;opacity=70;fillColor=#dae8fc;strokeColor=light-dark(#000000, #996500);" vertex="1" parent="1">
          <mxGeometry x="270" y="150" width="90" height="90" as="geometry" />
        </mxCell>
        <mxCell id="ebNBVzHwmQhHR5r42p8A-42" value="" style="rounded=0;whiteSpace=wrap;html=1;opacity=70;fillColor=#d5e8d4;strokeColor=light-dark(#000000, #996500);" vertex="1" parent="1">
          <mxGeometry x="210" y="150" width="90" height="90" as="geometry" />
        </mxCell>
        <mxCell id="ebNBVzHwmQhHR5r42p8A-41" value="" style="rounded=0;whiteSpace=wrap;html=1;opacity=70;fillColor=#ffe6cc;strokeColor=light-dark(#000000, #996500);" vertex="1" parent="1">
          <mxGeometry x="150" y="150" width="90" height="90" as="geometry" />
        </mxCell>
        <mxCell id="ebNBVzHwmQhHR5r42p8A-44" value="" style="shape=flexArrow;endArrow=classic;html=1;rounded=0;" edge="1" parent="1">
          <mxGeometry width="50" height="50" relative="1" as="geometry">
            <mxPoint x="379" y="254.5" as="sourcePoint" />
            <mxPoint x="449" y="254.5" as="targetPoint" />
          </mxGeometry>
        </mxCell>
        <mxCell id="ebNBVzHwmQhHR5r42p8A-45" value="" style="rounded=0;whiteSpace=wrap;html=1;container=0;fillColor=#ffe6cc;strokeColor=light-dark(#000000, #996500);" vertex="1" parent="1">
          <mxGeometry x="490" y="210" width="30" height="30" as="geometry" />
        </mxCell>
        <mxCell id="ebNBVzHwmQhHR5r42p8A-46" value="" style="rounded=0;whiteSpace=wrap;html=1;container=0;fillColor=#d5e8d4;strokeColor=light-dark(#000000, #996500);" vertex="1" parent="1">
          <mxGeometry x="520" y="210" width="30" height="30" as="geometry" />
        </mxCell>
        <mxCell id="ebNBVzHwmQhHR5r42p8A-47" value="" style="rounded=0;whiteSpace=wrap;html=1;container=0;fillColor=#dae8fc;strokeColor=light-dark(#000000, #996500);" vertex="1" parent="1">
          <mxGeometry x="550" y="210" width="30" height="30" as="geometry" />
        </mxCell>
        <mxCell id="ebNBVzHwmQhHR5r42p8A-48" value="" style="rounded=0;whiteSpace=wrap;html=1;container=0;strokeColor=light-dark(#000000, #996500);" vertex="1" parent="1">
          <mxGeometry x="490" y="240" width="30" height="30" as="geometry" />
        </mxCell>
        <mxCell id="ebNBVzHwmQhHR5r42p8A-49" value="" style="rounded=0;whiteSpace=wrap;html=1;container=0;strokeColor=light-dark(#000000, #996500);" vertex="1" parent="1">
          <mxGeometry x="520" y="240" width="30" height="30" as="geometry" />
        </mxCell>
        <mxCell id="ebNBVzHwmQhHR5r42p8A-50" value="" style="rounded=0;whiteSpace=wrap;html=1;container=0;strokeColor=light-dark(#000000, #996500);" vertex="1" parent="1">
          <mxGeometry x="550" y="240" width="30" height="30" as="geometry" />
        </mxCell>
        <mxCell id="ebNBVzHwmQhHR5r42p8A-51" value="" style="rounded=0;whiteSpace=wrap;html=1;container=0;strokeColor=light-dark(#000000, #996500);" vertex="1" parent="1">
          <mxGeometry x="490" y="270" width="30" height="30" as="geometry" />
        </mxCell>
        <mxCell id="ebNBVzHwmQhHR5r42p8A-52" value="" style="rounded=0;whiteSpace=wrap;html=1;container=0;strokeColor=light-dark(#000000, #996500);" vertex="1" parent="1">
          <mxGeometry x="520" y="270" width="30" height="30" as="geometry" />
        </mxCell>
        <mxCell id="ebNBVzHwmQhHR5r42p8A-53" value="" style="rounded=0;whiteSpace=wrap;html=1;container=0;strokeColor=light-dark(#000000, #996500);" vertex="1" parent="1">
          <mxGeometry x="550" y="270" width="30" height="30" as="geometry" />
        </mxCell>
        <mxCell id="ebNBVzHwmQhHR5r42p8A-54" value="Conv" style="text;html=1;align=center;verticalAlign=middle;whiteSpace=wrap;rounded=0;" vertex="1" parent="1">
          <mxGeometry x="380" y="220" width="70" height="30" as="geometry" />
        </mxCell>
      </root>
    </mxGraphModel>
  </diagram>
</mxfile>
